<?xml version="1.0" encoding="UTF-8" standalone="no"?><svg xmlns="http://www.w3.org/2000/svg" xmlns:xlink="http://www.w3.org/1999/xlink" clip-rule="evenodd" stroke-miterlimit="10" viewBox="0 0 1024 768"><desc>SVG generated by Keynote</desc><defs></defs><g transform="matrix(1.00, 0.00, -0.00, -1.00, 0.0, 768.0)"><path d="M 0.0 768.0 L 1024.0 768.0 L 1024.0 0.0 L 0.0 0.0 Z M 0.0 768.0 " fill="#FEFFFF"></path><image xlink:href="8D7B3ABC46392683071DAA3D7C612289.jpeg" width="1600.00" height="1067.00" transform="matrix(-0.64, 0.00, 0.00, -0.64, 1024.0, 769.0)"></image><g><clipPath id="clip0x6000012bf380"><path d="M 474.0 756.0 L 1017.0 756.0 L 1017.0 698.0 L 474.0 698.0 Z M 473.6 756.1 "></path></clipPath><g clip-path="url(#clip0x6000012bf380)"><image xlink:href="D6451C6483EE252B698CD1C57E4E53B3.png" width="1017.00" height="109.00" transform="matrix(0.53, 0.00, -0.00, -0.53, 474.0, 756.0)"></image></g></g><image xlink:href="97CFFE10DD1973D61005C3425412BF00.png" width="2347.00" height="493.00" transform="matrix(0.14, 0.00, -0.00, -0.14, 28.0, 744.0)"></image><image xlink:href="515F98E8B90B7EC3F90095201CE1918A.png" width="554.00" height="34.00" transform="matrix(1.00, 0.00, -0.00, -1.00, 269.0, 552.0)"></image><text xml:space="preserve" font-family="CenturyGothic-Bold,Century Gothic" font-weight="bold" font-size="36.0" fill="#FEFFFE" transform="matrix(1.00, 0.00, -0.00, -1.00, 269.6, 524.3)">H</text><text xml:space="preserve" font-family="CenturyGothic-Bold,Century Gothic" font-weight="bold" font-size="36.0" fill="#FEFFFE" transform="matrix(1.00, 0.00, -0.00, -1.00, 294.1, 524.3)">A</text><text xml:space="preserve" font-family="CenturyGothic-Bold,Century Gothic" font-weight="bold" font-size="36.0" fill="#FEFFFE" transform="matrix(1.00, 0.00, -0.00, -1.00, 320.7, 524.3)">N</text><text xml:space="preserve" font-family="CenturyGothic-Bold,Century Gothic" font-weight="bold" font-size="36.0" fill="#FEFFFE" transform="matrix(1.00, 0.00, -0.00, -1.00, 347.3, 524.3)">D</text><text xml:space="preserve" font-family="CenturyGothic-Bold,Century Gothic" font-weight="bold" font-size="36.0" fill="#FEFFFE" transform="matrix(1.00, 0.00, -0.00, -1.00, 372.6, 524.3)"> </text><text xml:space="preserve" font-family="CenturyGothic-Bold,Century Gothic" font-weight="bold" font-size="36.0" fill="#FEFFFE" transform="matrix(1.00, 0.00, -0.00, -1.00, 382.6, 524.3)">C</text><text xml:space="preserve" font-family="CenturyGothic-Bold,Century Gothic" font-weight="bold" font-size="36.0" fill="#FEFFFE" transform="matrix(1.00, 0.00, -0.00, -1.00, 410.7, 524.3)">R</text><text xml:space="preserve" font-family="CenturyGothic-Bold,Century Gothic" font-weight="bold" font-size="36.0" fill="#FEFFFE" transform="matrix(1.00, 0.00, -0.00, -1.00, 431.6, 524.3)">A</text><text xml:space="preserve" font-family="CenturyGothic-Bold,Century Gothic" font-weight="bold" font-size="36.0" fill="#FEFFFE" transform="matrix(1.00, 0.00, -0.00, -1.00, 458.2, 524.3)">F</text><text xml:space="preserve" font-family="CenturyGothic-Bold,Century Gothic" font-weight="bold" font-size="36.0" fill="#FEFFFE" transform="matrix(1.00, 0.00, -0.00, -1.00, 475.5, 524.3)">T</text><text xml:space="preserve" font-family="CenturyGothic-Bold,Century Gothic" font-weight="bold" font-size="36.0" fill="#FEFFFE" transform="matrix(1.00, 0.00, -0.00, -1.00, 490.6, 524.3)">E</text><text xml:space="preserve" font-family="CenturyGothic-Bold,Century Gothic" font-weight="bold" font-size="36.0" fill="#FEFFFE" transform="matrix(1.00, 0.00, -0.00, -1.00, 509.3, 524.3)">D</text><text xml:space="preserve" font-family="CenturyGothic-Bold,Century Gothic" font-weight="bold" font-size="36.0" fill="#FEFFFE" transform="matrix(1.00, 0.00, -0.00, -1.00, 534.5, 524.3)"> </text><text xml:space="preserve" font-family="CenturyGothic-Bold,Century Gothic" font-weight="bold" font-size="36.0" fill="#FEFFFE" transform="matrix(1.00, 0.00, -0.00, -1.00, 544.6, 524.3)">P</text><text xml:space="preserve" font-family="CenturyGothic-Bold,Century Gothic" font-weight="bold" font-size="36.0" fill="#FEFFFE" transform="matrix(1.00, 0.00, -0.00, -1.00, 564.7, 524.3)">I</text><text xml:space="preserve" font-family="CenturyGothic-Bold,Century Gothic" font-weight="bold" font-size="36.0" fill="#FEFFFE" transform="matrix(1.00, 0.00, -0.00, -1.00, 574.8, 524.3)">L</text><text xml:space="preserve" font-family="CenturyGothic-Bold,Century Gothic" font-weight="bold" font-size="36.0" fill="#FEFFFE" transform="matrix(1.00, 0.00, -0.00, -1.00, 590.6, 524.3)">L</text><text xml:space="preserve" font-family="CenturyGothic-Bold,Century Gothic" font-weight="bold" font-size="36.0" fill="#FEFFFE" transform="matrix(1.00, 0.00, -0.00, -1.00, 606.5, 524.3)">O</text><text xml:space="preserve" font-family="CenturyGothic-Bold,Century Gothic" font-weight="bold" font-size="36.0" fill="#FEFFFE" transform="matrix(1.00, 0.00, -0.00, -1.00, 636.7, 524.3)">W</text><text xml:space="preserve" font-family="CenturyGothic-Bold,Century Gothic" font-weight="bold" font-size="36.0" fill="#FEFFFE" transform="matrix(1.00, 0.00, -0.00, -1.00, 669.1, 524.3)"> </text><text xml:space="preserve" font-family="CenturyGothic-Bold,Century Gothic" font-weight="bold" font-size="36.0" fill="#FEFFFE" transform="matrix(1.00, 0.00, -0.00, -1.00, 679.2, 524.3)">C</text><text xml:space="preserve" font-family="CenturyGothic-Bold,Century Gothic" font-weight="bold" font-size="36.0" fill="#FEFFFE" transform="matrix(1.00, 0.00, -0.00, -1.00, 707.2, 524.3)">O</text><text xml:space="preserve" font-family="CenturyGothic-Bold,Century Gothic" font-weight="bold" font-size="36.0" fill="#FEFFFE" transform="matrix(1.00, 0.00, -0.00, -1.00, 737.5, 524.3)">V</text><text xml:space="preserve" font-family="CenturyGothic-Bold,Century Gothic" font-weight="bold" font-size="36.0" fill="#FEFFFE" transform="matrix(1.00, 0.00, -0.00, -1.00, 762.7, 524.3)">E</text><text xml:space="preserve" font-family="CenturyGothic-Bold,Century Gothic" font-weight="bold" font-size="36.0" fill="#FEFFFE" transform="matrix(1.00, 0.00, -0.00, -1.00, 781.4, 524.3)">R</text><text xml:space="preserve" font-family="CenturyGothic-Bold,Century Gothic" font-weight="bold" font-size="36.0" fill="#FEFFFE" transform="matrix(1.00, 0.00, -0.00, -1.00, 802.3, 524.3)">S</text><image xlink:href="3AED355D5663D1644E58A446F1D31469.png" width="183.00" height="59.00" transform="matrix(1.00, 0.00, -0.00, -1.00, 453.6, 454.9)" opacity="0.50"></image><path d="M 0.4 42.4 L 0.4 9.6 C 0.4 4.3 4.3 -0.1 9.6 -0.1 L 166.9 -0.1 C 172.2 -0.1 176.4 4.3 176.4 9.6 L 176.4 42.4 C 176.4 47.7 172.2 51.9 166.9 51.9 L 9.6 51.9 C 4.3 51.9 0.4 47.7 0.4 42.4 Z M 0.0 42.4 " fill="none" stroke="#DCDDE0" stroke-width="1.00" transform="matrix(1.00, 0.00, 0.00, -1.00, 457.1, 453.4)"></path><g><clipPath id="clip0x6080010abb20"><path d="M 455.6 401.4 L 635.1 401.4 L 635.1 453.4 L 455.6 453.4 Z M 455.6 401.4 "></path></clipPath><g clip-path="url(#clip0x6080010abb20)"><text xml:space="preserve" font-family="Helvetica-Bold,Helvetica" font-weight="bold" font-size="24.0" fill="#FEFFFE" transform="matrix(1.00, 0.00, -0.00, -1.00, 478.9, 418.2)">S</text><text xml:space="preserve" font-family="Helvetica-Bold,Helvetica" font-weight="bold" font-size="24.0" fill="#FEFFFE" transform="matrix(1.00, 0.00, -0.00, -1.00, 494.9, 418.2)">H</text><text xml:space="preserve" font-family="Helvetica-Bold,Helvetica" font-weight="bold" font-size="24.0" fill="#FEFFFE" transform="matrix(1.00, 0.00, -0.00, -1.00, 512.2, 418.2)">O</text><text xml:space="preserve" font-family="Helvetica-Bold,Helvetica" font-weight="bold" font-size="24.0" fill="#FEFFFE" transform="matrix(1.00, 0.00, -0.00, -1.00, 530.9, 418.2)">P</text><text xml:space="preserve" font-family="Helvetica-Bold,Helvetica" font-weight="bold" font-size="24.0" fill="#FEFFFE" transform="matrix(1.00, 0.00, -0.00, -1.00, 546.5, 418.2)"> </text><text xml:space="preserve" font-family="Helvetica-Bold,Helvetica" font-weight="bold" font-size="24.0" fill="#FEFFFE" transform="matrix(1.00, 0.00, -0.00, -1.00, 553.1, 418.2)">N</text><text xml:space="preserve" font-family="Helvetica-Bold,Helvetica" font-weight="bold" font-size="24.0" fill="#FEFFFE" transform="matrix(1.00, 0.00, -0.00, -1.00, 570.5, 418.2)">O</text><text xml:space="preserve" font-family="Helvetica-Bold,Helvetica" font-weight="bold" font-size="24.0" fill="#FEFFFE" transform="matrix(1.00, 0.00, -0.00, -1.00, 589.1, 418.2)">W</text></g></g><g opacity="0.52"><g><clipPath id="clip0x608000eb9bc0"><path d="M 971.0 390.0 L 1021.0 390.0 L 1021.0 461.0 L 971.0 461.0 Z M 971.0 390.0 "></path></clipPath><g clip-path="url(#clip0x608000eb9bc0)"><image xlink:href="BD7635348DE66E6384352FCAEE57C58C.png" width="47.00" height="64.00" transform="matrix(0.99, 0.00, -0.00, -1.00, 972.9, 455.4)" opacity="0.50"></image><path d="M 0.0 45.8 L 0.1 10.4 C 0.1 4.6 4.6 0.4 10.4 0.4 L 28.4 0.4 C 34.1 0.4 39.1 4.6 39.1 10.4 L 39.1 45.8 C 39.1 51.5 34.1 56.4 28.4 56.4 L 10.4 56.4 C 4.6 56.4 0.0 51.5 0.0 45.8 Z M 0.0 45.8 " fill="none" stroke="#DCDDE0" stroke-width="2.00" transform="matrix(1.00, 0.00, 0.00, -1.00, 976.9, 453.4)"></path></g></g><g><clipPath id="clip0x6000014a1ec0"><path d="M 975.3 394.4 L 1017.1 394.4 L 1017.1 455.4 L 975.3 455.4 Z M 975.3 394.4 "></path></clipPath><g clip-path="url(#clip0x6000014a1ec0)"><text xml:space="preserve" font-family="Helvetica-Light,Helvetica" font-size="36.0" fill="#FEFFFE" transform="matrix(1.00, 0.00, -0.00, -1.00, 984.3, 411.7)">&gt;</text></g></g></g><g opacity="0.48"><g><clipPath id="clip0x6000012a1f20"><path d="M 0.0 390.0 L 48.0 390.0 L 48.0 461.0 L 0.0 461.0 Z M 0.0 390.0 "></path></clipPath><g clip-path="url(#clip0x6000012a1f20)"><image xlink:href="40BBC5258D88CAA41186515157DE7830.png" width="47.00" height="64.00" transform="matrix(0.99, 0.00, -0.00, -1.00, 0.2, 455.4)" opacity="0.50"></image><path d="M 0.0 45.8 L -0.2 10.4 C -0.2 4.6 4.6 0.4 10.4 0.4 L 28.4 0.4 C 34.1 0.4 38.8 4.6 38.8 10.4 L 38.8 45.8 C 38.8 51.5 34.1 56.4 28.4 56.4 L 10.4 56.4 C 4.6 56.4 0.0 51.5 0.0 45.8 Z M 0.0 45.8 " fill="none" stroke="#DCDDE0" stroke-width="2.00" transform="matrix(1.00, 0.00, 0.00, -1.00, 4.2, 453.4)"></path></g></g><g><clipPath id="clip0x6000014b7880"><path d="M 2.6 394.4 L 44.5 394.4 L 44.5 455.4 L 2.6 455.4 Z M 2.6 394.4 "></path></clipPath><g clip-path="url(#clip0x6000014b7880)"><text xml:space="preserve" font-family="Helvetica-Light,Helvetica" font-size="36.0" fill="#FEFFFE" transform="matrix(1.00, 0.00, -0.00, -1.00, 11.6, 411.7)">&lt;</text></g></g></g><image xlink:href="FBE8600166002EB841FD1564C3A21A48.png" width="187.00" height="30.00" transform="matrix(1.00, 0.00, -0.00, -1.00, 452.0, 495.0)"></image><text xml:space="preserve" font-family="CenturyGothic,Century Gothic" font-size="29.0" fill="#FEFFFE" transform="matrix(1.00, 0.00, -0.00, -1.00, 454.2, 472.0)">O</text><text xml:space="preserve" font-family="CenturyGothic,Century Gothic" font-size="29.0" fill="#FEFFFE" transform="matrix(1.00, 0.00, -0.00, -1.00, 479.5, 472.0)">N</text><text xml:space="preserve" font-family="CenturyGothic,Century Gothic" font-size="29.0" fill="#FEFFFE" transform="matrix(1.00, 0.00, -0.00, -1.00, 500.9, 472.0)"> </text><text xml:space="preserve" font-family="CenturyGothic,Century Gothic" font-size="29.0" fill="#FEFFFE" transform="matrix(1.00, 0.00, -0.00, -1.00, 508.9, 472.0)">S</text><text xml:space="preserve" font-family="CenturyGothic,Century Gothic" font-size="29.0" fill="#FEFFFE" transform="matrix(1.00, 0.00, -0.00, -1.00, 523.4, 472.0)">A</text><text xml:space="preserve" font-family="CenturyGothic,Century Gothic" font-size="29.0" fill="#FEFFFE" transform="matrix(1.00, 0.00, -0.00, -1.00, 544.8, 472.0)">L</text><text xml:space="preserve" font-family="CenturyGothic,Century Gothic" font-size="29.0" fill="#FEFFFE" transform="matrix(1.00, 0.00, -0.00, -1.00, 558.2, 472.0)">E</text><text xml:space="preserve" font-family="CenturyGothic,Century Gothic" font-size="29.0" fill="#FEFFFE" transform="matrix(1.00, 0.00, -0.00, -1.00, 573.8, 472.0)"> </text><text xml:space="preserve" font-family="CenturyGothic,Century Gothic" font-size="29.0" fill="#FEFFFE" transform="matrix(1.00, 0.00, -0.00, -1.00, 581.8, 472.0)">3</text><text xml:space="preserve" font-family="CenturyGothic,Century Gothic" font-size="29.0" fill="#FEFFFE" transform="matrix(1.00, 0.00, -0.00, -1.00, 597.9, 472.0)">0</text><text xml:space="preserve" font-family="CenturyGothic,Century Gothic" font-size="29.0" fill="#FEFFFE" transform="matrix(1.00, 0.00, -0.00, -1.00, 613.9, 472.0)">%</text></g></svg>